<?xml version="1.0" standalone="no"?><svg xmlns="http://www.w3.org/2000/svg" viewBox="0 0 1440 320"><path fill="#0099ff" fill-opacity="1" d="M0,32L20,32C40,32,80,32,120,48C160,64,200,96,240,112C280,128,320,128,360,122.7C400,117,440,107,480,122.7C520,139,560,181,600,213.3C640,245,680,267,720,277.3C760,288,800,288,840,272C880,256,920,224,960,192C1000,160,1040,128,1080,144C1120,160,1160,224,1200,256C1240,288,1280,288,1320,277.3C1360,267,1400,245,1420,234.7L1440,224L1440,320L1420,320C1400,320,1360,320,1320,320C1280,320,1240,320,1200,320C1160,320,1120,320,1080,320C1040,320,1000,320,960,320C920,320,880,320,840,320C800,320,760,320,720,320C680,320,640,320,600,320C560,320,520,320,480,320C440,320,400,320,360,320C320,320,280,320,240,320C200,320,160,320,120,320C80,320,40,320,20,320L0,320Z"></path></svg>